<svg xmlns="http://www.w3.org/2000/svg" viewBox="0 0 48 48"><g id="Vacuum_Cleaner" data-name="Vacuum Cleaner"><path d="M40,38.142V37a1.993,1.993,0,0,0-1-1.722V13a12,12,0,0,0-24,0v4.278A1.993,1.993,0,0,0,14,19v2.261A15.017,15.017,0,0,0,5,35v6a5.006,5.006,0,0,0,5,5h7.69A5.995,5.995,0,0,0,26,37.69V25a5.009,5.009,0,0,0-4-4.9V19a1.993,1.993,0,0,0-1-1.722V13a6,6,0,0,1,12,0V35.278A1.993,1.993,0,0,0,32,37v1.142A4,4,0,0,0,29,42v2a2,2,0,0,0,2,2H41a2,2,0,0,0,2-2V42A4,4,0,0,0,40,38.142ZM34,37h4v1H34ZM16,19h4v1a14.925,14.925,0,0,0-4,.558ZM7,41V37.618L9.432,36.4a2.958,2.958,0,0,0,1.624-2.281C11.593,29.807,15.809,25,21,25h3V35.812A5.989,5.989,0,0,0,15.812,44H10A3,3,0,0,1,7,41Zm14,4a4,4,0,1,1,4-4A4,4,0,0,1,21,45Zm2.22-22H21C14.768,23,9.711,28.73,9.071,33.874a.962.962,0,0,1-.533.739L7,35.382V35A13.015,13.015,0,0,1,20,22h1A2.985,2.985,0,0,1,23.22,23ZM27,5a8.009,8.009,0,0,0-8,8v4H17V13a10,10,0,0,1,20,0V35H35V13A8.009,8.009,0,0,0,27,5ZM41,44H31V42a2,2,0,0,1,2-2h6a2,2,0,0,1,2,2Z" id="id_105"></path><path d="M10,38a1,1,0,0,0-1,1v2a1,1,0,0,0,2,0V39A1,1,0,0,0,10,38Z" id="id_106"></path></g></svg>